<svg width="27" height="27" viewBox="0 0 27 27" fill="none" xmlns="http://www.w3.org/2000/svg">
<rect width="27" height="27" rx="3" fill="#7A7A7A" fill-opacity="0.86"/>
<g clip-path="url(#clip0_98_8)">
<path d="M19.8288 13.4745L20.2923 13.0111L18.9019 11.6206L16.3548 9.07356L14.9644 7.68313L14.5009 8.14661L13.574 9.07356L5.40364 17.2439C4.97708 17.6704 4.66536 18.1995 4.4931 18.7779L3.04114 23.7161C2.9386 24.0607 3.03294 24.4339 3.29134 24.6882C3.54974 24.9425 3.91888 25.0368 4.26341 24.9384L9.19759 23.4865C9.77591 23.3142 10.305 23.0025 10.7316 22.5759L18.9019 14.4056L19.8288 13.4745ZM9.56263 20.3816L9.18938 21.3126C9.02532 21.4398 8.84075 21.5341 8.64388 21.5956L5.43645 22.539L6.37981 19.3357C6.43724 19.1347 6.53567 18.9501 6.66282 18.7902L7.59388 18.4169V19.7294C7.59388 20.0904 7.88919 20.3857 8.25013 20.3857H9.56263V20.3816ZM17.8765 4.76692L17.2859 5.36165L16.3589 6.2886L15.8913 6.75208L17.2818 8.14251L19.8288 10.6896L21.2193 12.08L21.6827 11.6165L22.6097 10.6896L23.2044 10.0949C24.2298 9.06946 24.2298 7.40833 23.2044 6.38294L21.5925 4.76692C20.5671 3.74153 18.906 3.74153 17.8806 4.76692H17.8765ZM15.9324 11.6575L10.0261 17.5638C9.77181 17.8181 9.35345 17.8181 9.09915 17.5638C8.84485 17.3095 8.84485 16.8911 9.09915 16.6368L15.0054 10.7306C15.2597 10.4763 15.6781 10.4763 15.9324 10.7306C16.1866 10.9849 16.1866 11.4033 15.9324 11.6575Z" fill="white"/>
</g>
<defs>
<clipPath id="clip0_98_8">
<rect width="21" height="21" fill="white" transform="translate(3 4)"/>
</clipPath>
</defs>
</svg>
