<svg width="118" height="118" viewBox="0 0 118 118" fill="none" xmlns="http://www.w3.org/2000/svg">
<circle cx="59" cy="59" r="59" fill="white"/>
<g clip-path="url(#clip0_85_3)">
<path d="M59 59C64.3043 59 69.3914 56.8929 73.1421 53.1421C76.8929 49.3914 79 44.3043 79 39C79 33.6957 76.8929 28.6086 73.1421 24.8579C69.3914 21.1071 64.3043 19 59 19C53.6957 19 48.6086 21.1071 44.8579 24.8579C41.1071 28.6086 39 33.6957 39 39C39 44.3043 41.1071 49.3914 44.8579 53.1421C48.6086 56.8929 53.6957 59 59 59ZM51.8594 66.5C36.4688 66.5 24 78.9688 24 94.3594C24 96.9219 26.0781 99 28.6406 99H89.3594C91.9219 99 94 96.9219 94 94.3594C94 78.9688 81.5312 66.5 66.1406 66.5H51.8594Z" fill="#FCBEFC"/>
</g>
<defs>
<clipPath id="clip0_85_3">
<rect width="70" height="80" fill="white" transform="translate(24 19)"/>
</clipPath>
</defs>
</svg>
