<svg width="27" height="27" viewBox="0 0 27 27" fill="none" xmlns="http://www.w3.org/2000/svg">
<rect width="27" height="27" rx="3" fill="#7A7A7A" fill-opacity="0.86"/>
<g clip-path="url(#clip0_98_9)">
<path d="M9.3375 3.72598L9 4.3125H4.5C3.67031 4.3125 3 4.89902 3 5.625C3 6.35098 3.67031 6.9375 4.5 6.9375H22.5C23.3297 6.9375 24 6.35098 24 5.625C24 4.89902 23.3297 4.3125 22.5 4.3125H18L17.6625 3.72598C17.4094 3.27891 16.8891 3 16.3219 3H10.6781C10.1109 3 9.59062 3.27891 9.3375 3.72598ZM22.5 8.25H4.5L5.49375 22.1543C5.56875 23.192 6.55312 24 7.73906 24H19.2609C20.4469 24 21.4312 23.192 21.5062 22.1543L22.5 8.25Z" fill="white"/>
</g>
<defs>
<clipPath id="clip0_98_9">
<rect width="21" height="21" fill="white" transform="translate(3 3)"/>
</clipPath>
</defs>
</svg>
