<svg width="27" height="27" viewBox="0 0 27 27" fill="none" xmlns="http://www.w3.org/2000/svg">
<rect width="27" height="27" rx="3" fill="#7A7A7A"/>
<g clip-path="url(#clip0_98_7)">
<path d="M20.0625 11.5313C20.0625 13.4139 19.4514 15.1529 18.4219 16.5639L23.6145 21.7605C24.1271 22.2732 24.1271 23.1059 23.6145 23.6186C23.1018 24.1313 22.2691 24.1313 21.7564 23.6186L16.5639 18.4219C15.1529 19.4555 13.4139 20.0625 11.5312 20.0625C6.81855 20.0625 3 16.2439 3 11.5313C3 6.81855 6.81855 3 11.5312 3C16.2439 3 20.0625 6.81855 20.0625 11.5313ZM11.5312 17.4375C12.3069 17.4375 13.0749 17.2847 13.7915 16.9879C14.5081 16.6911 15.1592 16.256 15.7076 15.7076C16.256 15.1592 16.6911 14.5081 16.9879 13.7915C17.2847 13.0749 17.4375 12.3069 17.4375 11.5313C17.4375 10.7556 17.2847 9.98761 16.9879 9.27103C16.6911 8.55445 16.256 7.90335 15.7076 7.3549C15.1592 6.80645 14.5081 6.3714 13.7915 6.07459C13.0749 5.77777 12.3069 5.625 11.5312 5.625C10.7556 5.625 9.9876 5.77777 9.27103 6.07459C8.55445 6.3714 7.90335 6.80645 7.3549 7.3549C6.80645 7.90335 6.3714 8.55445 6.07459 9.27103C5.77777 9.98761 5.625 10.7556 5.625 11.5313C5.625 12.3069 5.77777 13.0749 6.07459 13.7915C6.3714 14.5081 6.80645 15.1592 7.3549 15.7076C7.90335 16.256 8.55445 16.6911 9.27103 16.9879C9.9876 17.2847 10.7556 17.4375 11.5312 17.4375Z" fill="white"/>
</g>
<defs>
<clipPath id="clip0_98_7">
<rect width="21" height="21" fill="white" transform="translate(3 3)"/>
</clipPath>
</defs>
</svg>
