<svg width="118" height="118" viewBox="0 0 118 118" fill="none" xmlns="http://www.w3.org/2000/svg">
<circle cx="59" cy="59" r="59" fill="white"/>
<path d="M54.4969 34.2707C56.6754 40.8062 54.4512 47.4027 49.5305 49.0176C44.6097 50.6324 38.8512 46.641 36.6726 40.1055C34.4941 33.5699 36.7183 26.9734 41.639 25.3586C46.5597 23.7437 52.3183 27.7352 54.4969 34.2707ZM35.2863 50.3734C38.1656 55.3094 37.4648 61.0527 33.7324 63.1855C30 65.3184 24.6375 63.0484 21.7734 58.1125C18.9094 53.1766 19.5797 47.4332 23.3121 45.3004C27.0445 43.1676 32.407 45.4375 35.2711 50.3734H35.2863ZM30.5332 81.2383C38.516 59.7121 52.6992 54.243 58.991 54.243C65.2828 54.243 79.466 59.7121 87.4488 81.2383C87.9972 82.716 88.241 84.3004 88.241 85.8848V86.1285C88.241 90.059 85.057 93.243 81.1265 93.243C79.3746 93.243 77.6379 93.0297 75.9469 92.6031L62.5406 89.2516C60.2097 88.6727 57.7722 88.6727 55.4414 89.2516L42.0351 92.6031C40.3441 93.0297 38.6074 93.243 36.8555 93.243C32.925 93.243 29.741 90.059 29.741 86.1285V85.8848C29.741 84.3004 29.9847 82.716 30.5332 81.2383ZM84.2496 63.1855C80.5172 61.0527 79.8164 55.3094 82.6957 50.3734C85.575 45.4375 90.9222 43.1676 94.6547 45.3004C98.3871 47.4332 99.0879 53.1766 96.2086 58.1125C93.3293 63.0484 87.982 65.3184 84.2496 63.1855ZM67.2328 49.0176C62.3121 47.4027 60.0879 40.8062 62.2664 34.2707C64.4449 27.7352 70.2035 23.7437 75.1242 25.3586C80.0449 26.9734 82.2691 33.5699 80.0906 40.1055C77.9121 46.641 72.1535 50.6324 67.2328 49.0176Z" fill="#FCBEFC"/>
</svg>
