<svg width="118" height="118" viewBox="0 0 118 118" fill="none" xmlns="http://www.w3.org/2000/svg">
<circle cx="59" cy="59" r="59" fill="#FFFEFE"/>
<path d="M27.1586 67.8382L54.3342 93.2091C55.4621 94.2619 56.951 94.8484 58.5 94.8484C60.049 94.8484 61.5379 94.2619 62.6658 93.2091L89.8414 67.8382C94.4133 63.5822 97 57.6117 97 51.3705V50.4982C97 39.9859 89.4053 31.0226 79.0434 29.2931C72.1855 28.1502 65.2074 30.391 60.3047 35.2937L58.5 37.0984L56.6953 35.2937C51.7926 30.391 44.8145 28.1502 37.9566 29.2931C27.5947 31.0226 20 39.9859 20 50.4982V51.3705C20 57.6117 22.5867 63.5822 27.1586 67.8382Z" fill="#FCBEFC"/>
</svg>
